<svg xmlns="http://www.w3.org/2000/svg" width="1920" height="1280"><defs><clipPath id="a"><path data-name="Прямоугольник 5717" transform="translate(-.311)" d="M0 0h1920v1280H0z"/></clipPath></defs><g data-name="5197265" transform="translate(.311)" clip-path="url(#a)"><path data-name="Контур 16725" d="M70.762 958.202c53.367 16.33 94.32 51.268 133.046 90.045 37.267 37.318 74.2 76.633 122.731 99.336 100.053 46.814 217.588 23.062 315.567-17.047 109.5-44.843 212.366-112.313 330.771-132 58.076-9.65 120.2-5.017 170.773 27.413 41.9 26.875 64.6 69.415 74.073 117.253 5.375 27.182 7.218 54.774 8.677 82.418h12.67c-.409-7.832-.819-15.665-1.382-23.446-3.148-45.253-9.317-92.272-33.095-131.868-27.029-44.971-74.918-73.536-125.6-83.9-61.839-12.67-125.981-.589-185.03 19.043-56.9 18.915-110.777 45.586-164.682 71.54-102.894 49.553-216.948 99.823-334 78.937-27.387-4.889-53.981-13.873-78.22-27.541-23.957-13.489-45.023-31.2-64.885-50.091-38.842-36.907-74.015-78.883-120.419-106.834A262.123 262.123 0 00-29.7 935.806a.961.961 0 00-.256.026v12.977a250.743 250.743 0 01100.744 9.445z" fill="#0db1d5"/><path data-name="Контур 16726" d="M610.483 1052.688c75.899-106.44 69.085-247.882 49.999-347.8-9.827-51.426-24.05-102.76-37.823-152.41-17.829-64.28-36.267-130.736-45.223-197.857-8.755-65.503-17.493-228.139 89.84-323.019 61.755-54.577 155.223-78.97 277.813-72.498 11.527.6 23.136 1.486 34.732 2.421l.676-2.522c-11.775-.958-23.571-1.84-35.277-2.462-123.265-6.52-217.346 18.08-279.624 73.126-108.273 95.718-99.49 259.37-90.686 325.283 8.991 67.29 27.428 133.852 45.286 198.217 13.756 49.617 27.968 100.895 37.771 152.208 19 99.444 25.828 240.15-49.58 345.845-26.873 37.664-62.924 68.919-97.793 99.138-14.542 12.617-29.227 25.377-43.368 38.68l2.917.781c13.769-12.899 28.03-25.268 42.157-37.515 34.977-30.323 71.158-61.675 98.211-99.608z" fill="#f5f5f5"/><path data-name="Контур 16727" d="M1616.453 380.502c-55.107-9.957-109.626-31.457-148.352-73.28-17.482-18.889-31.252-41.465-38.368-66.292-6.476-22.575-7.269-46.2-4.684-69.441 5.375-48.094 24.213-93.68 38.7-139.47 7.96-25.16 15.1-51.293 18.019-77.682h-12.771a218.99 218.99 0 01-1.254 9.163c-7.7 49.015-27.438 95.139-41.439 142.49-13.387 45.253-22.294 94.115-8.319 140.391 15.409 51.012 55.341 91.504 101.841 115.769 53.623 28 115.231 37.011 175.048 38.88 65.985 2.073 131.766-5.094 197.546-9.24 28-1.766 56.643-2.867 85.31-2.432v-13.102c-120.427-1.715-241.494 25.928-361.307 4.249z" fill="#1e1e1e"/><path data-name="Контур 16732" d="M1854.578 226.094h-12.107v-12.107h-7.781v12.107h-12.107v7.781h12.107v12.081h7.781v-12.081h12.107z" fill="#fff"/><g data-name="Сгруппировать 4228"><g data-name="Сгруппировать 4236"><g data-name="Сгруппировать 4237" transform="translate(156.848 122.833)"><circle data-name="Эллипс 455" cx="3.123" cy="3.123" r="3.123" transform="translate(0 322.734)" fill="#0db1d5"/><circle data-name="Эллипс 456" cx="3.123" cy="3.123" r="3.123" transform="translate(45.202 322.734)" fill="#0db1d5"/><circle data-name="Эллипс 457" cx="3.123" cy="3.123" r="3.123" transform="translate(90.403 322.734)" fill="#0db1d5"/><path data-name="Контур 16784" d="M141.855 325.854a3.123 3.123 0 11-3.123-3.123 3.135 3.135 0 013.123 3.123z" fill="#0db1d5"/><circle data-name="Эллипс 458" cx="3.123" cy="3.123" r="3.123" transform="translate(180.807 322.734)" fill="#0db1d5"/><circle data-name="Эллипс 459" cx="3.123" cy="3.123" r="3.123" transform="translate(226.034 322.734)" fill="#0db1d5"/><circle data-name="Эллипс 460" cx="3.123" cy="3.123" r="3.123" transform="translate(271.235 322.734)" fill="#0db1d5"/><circle data-name="Эллипс 461" cx="3.123" cy="3.123" r="3.123" transform="translate(316.438 322.734)" fill="#fff"/><circle data-name="Эллипс 462" cx="3.123" cy="3.123" r="3.123" transform="translate(361.639 322.734)" fill="#fff"/></g><g data-name="Сгруппировать 4238" transform="translate(156.848 122.833)"><circle data-name="Эллипс 463" cx="3.123" cy="3.123" r="3.123" transform="translate(0 292.352)" fill="#0db1d5"/><circle data-name="Эллипс 464" cx="3.123" cy="3.123" r="3.123" transform="translate(45.202 292.352)" fill="#0db1d5"/><circle data-name="Эллипс 465" cx="3.123" cy="3.123" r="3.123" transform="translate(90.403 292.352)" fill="#fff"/><path data-name="Контур 16785" d="M141.855 295.475a3.123 3.123 0 11-3.123-3.123 3.135 3.135 0 013.123 3.123z" fill="#0db1d5"/><circle data-name="Эллипс 466" cx="3.123" cy="3.123" r="3.123" transform="translate(180.807 292.352)" fill="#fff"/><circle data-name="Эллипс 467" cx="3.123" cy="3.123" r="3.123" transform="translate(226.034 292.352)" fill="#0db1d5"/><circle data-name="Эллипс 468" cx="3.123" cy="3.123" r="3.123" transform="translate(271.235 292.352)" fill="#0db1d5"/><circle data-name="Эллипс 469" cx="3.123" cy="3.123" r="3.123" transform="translate(316.438 292.352)" fill="#0db1d5"/><circle data-name="Эллипс 470" cx="3.123" cy="3.123" r="3.123" transform="translate(361.639 292.352)" fill="#0db1d5"/></g><g data-name="Сгруппировать 4239" transform="translate(156.848 384.803)"><circle data-name="Эллипс 384" cx="3.123" cy="3.123" r="3.123" fill="#0db1d5"/><circle data-name="Эллипс 385" cx="3.123" cy="3.123" r="3.123" transform="translate(45.202)" fill="#fff"/><circle data-name="Эллипс 386" cx="3.123" cy="3.123" r="3.123" transform="translate(90.403)" fill="#0db1d5"/><path data-name="Контур 16735" d="M141.855 3.123A3.123 3.123 0 11138.732 0a3.135 3.135 0 013.123 3.123z" fill="#0db1d5"/><circle data-name="Эллипс 387" cx="3.123" cy="3.123" r="3.123" transform="translate(180.807)" fill="#0db1d5"/><circle data-name="Эллипс 388" cx="3.123" cy="3.123" r="3.123" transform="translate(226.034)" fill="#0db1d5"/><circle data-name="Эллипс 389" cx="3.123" cy="3.123" r="3.123" transform="translate(271.236)" fill="#fff"/><circle data-name="Эллипс 390" cx="3.123" cy="3.123" r="3.123" transform="translate(316.438)" fill="#0db1d5"/><circle data-name="Эллипс 391" cx="3.123" cy="3.123" r="3.123" transform="translate(361.639)" fill="#0db1d5"/></g><g data-name="Сгруппировать 4240" transform="translate(156.848 324.039)"><circle data-name="Эллипс 368" cx="3.123" cy="3.123" r="3.123" fill="#fff"/><circle data-name="Эллипс 369" cx="3.123" cy="3.123" r="3.123" transform="translate(45.202)" fill="#0db1d5"/><circle data-name="Эллипс 370" cx="3.123" cy="3.123" r="3.123" transform="translate(90.403)" fill="#0db1d5"/><path data-name="Контур 16733" d="M141.855 3.123A3.123 3.123 0 11138.732 0a3.135 3.135 0 013.123 3.123z" fill="#fff"/><circle data-name="Эллипс 371" cx="3.123" cy="3.123" r="3.123" transform="translate(180.807)" fill="#0db1d5"/><circle data-name="Эллипс 372" cx="3.123" cy="3.123" r="3.123" transform="translate(226.034)" fill="#0db1d5"/><circle data-name="Эллипс 373" cx="3.123" cy="3.123" r="3.123" transform="translate(271.236)" fill="#0db1d5"/><circle data-name="Эллипс 374" cx="3.123" cy="3.123" r="3.123" transform="translate(316.438)" fill="#0db1d5"/><circle data-name="Эллипс 375" cx="3.123" cy="3.123" r="3.123" transform="translate(361.639)" fill="#0db1d5"/></g><g data-name="Сгруппировать 4241" transform="translate(156.848 354.421)"><circle data-name="Эллипс 376" cx="3.123" cy="3.123" r="3.123" fill="#0db1d5"/><circle data-name="Эллипс 377" cx="3.123" cy="3.123" r="3.123" transform="translate(45.202)" fill="#0db1d5"/><circle data-name="Эллипс 378" cx="3.123" cy="3.123" r="3.123" transform="translate(90.403)" fill="#0db1d5"/><path data-name="Контур 16734" d="M141.855 3.123A3.123 3.123 0 11138.732 0a3.135 3.135 0 013.123 3.123z" fill="#0db1d5"/><circle data-name="Эллипс 379" cx="3.123" cy="3.123" r="3.123" transform="translate(180.807)" fill="#0db1d5"/><circle data-name="Эллипс 380" cx="3.123" cy="3.123" r="3.123" transform="translate(226.034)" fill="#fff"/><circle data-name="Эллипс 381" cx="3.123" cy="3.123" r="3.123" transform="translate(271.236)" fill="#0db1d5"/><circle data-name="Эллипс 382" cx="3.123" cy="3.123" r="3.123" transform="translate(316.438)" fill="#0db1d5"/><circle data-name="Эллипс 383" cx="3.123" cy="3.123" r="3.123" transform="translate(361.639)" fill="#fff"/></g></g><g data-name="Сгруппировать 4227" transform="translate(86.848 259.462)"><path data-name="Контур 16742" d="M1389.709 267.883a3.123 3.123 0 11-3.123-3.123 3.135 3.135 0 013.123 3.123z" fill="#fff"/><circle data-name="Эллипс 410" cx="3.123" cy="3.123" r="3.123" transform="translate(713.936 781.688)" fill="#fff"/><circle data-name="Эллипс 411" cx="3.123" cy="3.123" r="3.123" transform="translate(1073.579 569.987)" fill="#fff"/><circle data-name="Эллипс 412" cx="3.123" cy="3.123" r="3.123" transform="translate(1396.262 960.472)" fill="#fff"/><path data-name="Контур 16743" d="M919.703 3.123A3.123 3.123 0 11916.58 0a3.135 3.135 0 013.123 3.123z" fill="#fff"/><g data-name="Сгруппировать 4242" fill="#0db1d5"><path data-name="Контур 16786" d="M584.627 280.857a3.123 3.123 0 11-3.123-3.123 3.135 3.135 0 013.123 3.123z"/><path data-name="Контур 16787" d="M1183.179 843.834a3.123 3.123 0 11-3.123-3.123 3.135 3.135 0 013.123 3.123z"/><path data-name="Контур 16788" d="M74.483-101.512a3.123 3.123 0 11-3.123-3.123 3.135 3.135 0 013.123 3.123z"/><path data-name="Контур 16789" d="M456.777-133.506a3.123 3.123 0 11-3.123-3.123 3.135 3.135 0 013.123 3.123z"/><circle data-name="Эллипс 471" cx="3.123" cy="3.123" r="3.123" transform="translate(87.281 595.275)"/></g></g></g><g data-name="Сгруппировать 4234"><g data-name="Сгруппировать 4229" transform="translate(1844.578 864.854)"><circle data-name="Эллипс 413" cx="3.123" cy="3.123" r="3.123" fill="#fff"/><circle data-name="Эллипс 414" cx="3.123" cy="3.123" r="3.123" transform="translate(45.202)" fill="#0db1d5"/><circle data-name="Эллипс 415" cx="3.123" cy="3.123" r="3.123" transform="translate(90.403)" fill="#0db1d5"/><circle data-name="Эллипс 416" cx="3.123" cy="3.123" r="3.123" transform="translate(135.605)" fill="#fff"/><circle data-name="Эллипс 417" cx="3.123" cy="3.123" r="3.123" transform="translate(180.807)" fill="#0db1d5"/><circle data-name="Эллипс 418" cx="3.123" cy="3.123" r="3.123" transform="translate(226.034)" fill="#0db1d5"/><path data-name="Контур 16744" d="M277.481 3.123A3.123 3.123 0 11274.358 0a3.135 3.135 0 013.123 3.123z" fill="#0db1d5"/><circle data-name="Эллипс 419" cx="3.123" cy="3.123" r="3.123" transform="translate(316.438)" fill="#0db1d5"/><circle data-name="Эллипс 420" cx="3.123" cy="3.123" r="3.123" transform="translate(361.639)" fill="#0db1d5"/></g><g data-name="Сгруппировать 4230" transform="translate(1844.578 895.236)"><circle data-name="Эллипс 421" cx="3.123" cy="3.123" r="3.123" fill="#0db1d5"/><circle data-name="Эллипс 422" cx="3.123" cy="3.123" r="3.123" transform="translate(45.202)" fill="#0db1d5"/><circle data-name="Эллипс 423" cx="3.123" cy="3.123" r="3.123" transform="translate(90.403)" fill="#0db1d5"/><circle data-name="Эллипс 424" cx="3.123" cy="3.123" r="3.123" transform="translate(135.605)" fill="#0db1d5"/><circle data-name="Эллипс 425" cx="3.123" cy="3.123" r="3.123" transform="translate(180.807)" fill="#0db1d5"/><circle data-name="Эллипс 426" cx="3.123" cy="3.123" r="3.123" transform="translate(226.034)" fill="#fff"/><path data-name="Контур 16745" d="M277.481 3.123A3.123 3.123 0 11274.358 0a3.135 3.135 0 013.123 3.123z" fill="#0db1d5"/><circle data-name="Эллипс 427" cx="3.123" cy="3.123" r="3.123" transform="translate(316.438)" fill="#0db1d5"/><circle data-name="Эллипс 428" cx="3.123" cy="3.123" r="3.123" transform="translate(361.639)" fill="#fff"/></g><g data-name="Сгруппировать 4231" transform="translate(1844.578 925.618)"><circle data-name="Эллипс 429" cx="3.123" cy="3.123" r="3.123" fill="#0db1d5"/><circle data-name="Эллипс 430" cx="3.123" cy="3.123" r="3.123" transform="translate(45.202)" fill="#fff"/><circle data-name="Эллипс 431" cx="3.123" cy="3.123" r="3.123" transform="translate(90.403)" fill="#0db1d5"/><circle data-name="Эллипс 432" cx="3.123" cy="3.123" r="3.123" transform="translate(135.605)" fill="#0db1d5"/><circle data-name="Эллипс 433" cx="3.123" cy="3.123" r="3.123" transform="translate(180.807)" fill="#0db1d5"/><circle data-name="Эллипс 434" cx="3.123" cy="3.123" r="3.123" transform="translate(226.034)" fill="#0db1d5"/><path data-name="Контур 16746" d="M277.481 3.123A3.123 3.123 0 11274.358 0a3.135 3.135 0 013.123 3.123z" fill="#fff"/><circle data-name="Эллипс 435" cx="3.123" cy="3.123" r="3.123" transform="translate(316.438)" fill="#0db1d5"/><circle data-name="Эллипс 436" cx="3.123" cy="3.123" r="3.123" transform="translate(361.639)" fill="#0db1d5"/></g><g data-name="Сгруппировать 4232" transform="translate(1844.578 956)"><circle data-name="Эллипс 437" cx="3.123" cy="3.123" r="3.123" fill="#0db1d5"/><circle data-name="Эллипс 438" cx="3.123" cy="3.123" r="3.123" transform="translate(45.202)" fill="#0db1d5"/><circle data-name="Эллипс 439" cx="3.123" cy="3.123" r="3.123" transform="translate(90.403)" fill="#fff"/><circle data-name="Эллипс 440" cx="3.123" cy="3.123" r="3.123" transform="translate(135.605)" fill="#0db1d5"/><circle data-name="Эллипс 441" cx="3.123" cy="3.123" r="3.123" transform="translate(180.807)" fill="#fff"/><circle data-name="Эллипс 442" cx="3.123" cy="3.123" r="3.123" transform="translate(226.034)" fill="#0db1d5"/><path data-name="Контур 16747" d="M277.481 3.123A3.123 3.123 0 11274.358 0a3.135 3.135 0 013.123 3.123z" fill="#0db1d5"/><circle data-name="Эллипс 443" cx="3.123" cy="3.123" r="3.123" transform="translate(316.438)" fill="#0db1d5"/><circle data-name="Эллипс 444" cx="3.123" cy="3.123" r="3.123" transform="translate(361.639)" fill="#0db1d5"/></g><g data-name="Сгруппировать 4233" transform="translate(1844.578 986.407)"><circle data-name="Эллипс 445" cx="3.123" cy="3.123" r="3.123" fill="#0db1d5"/><circle data-name="Эллипс 446" cx="3.123" cy="3.123" r="3.123" transform="translate(45.202)" fill="#0db1d5"/><circle data-name="Эллипс 447" cx="3.123" cy="3.123" r="3.123" transform="translate(90.403)" fill="#0db1d5"/><circle data-name="Эллипс 448" cx="3.123" cy="3.123" r="3.123" transform="translate(135.605)" fill="#0db1d5"/><circle data-name="Эллипс 449" cx="3.123" cy="3.123" r="3.123" transform="translate(180.807)" fill="#0db1d5"/><circle data-name="Эллипс 450" cx="3.123" cy="3.123" r="3.123" transform="translate(226.034)" fill="#0db1d5"/><path data-name="Контур 16748" d="M277.481 3.123A3.123 3.123 0 11274.358 0a3.135 3.135 0 013.123 3.123z" fill="#0db1d5"/><circle data-name="Эллипс 451" cx="3.123" cy="3.123" r="3.123" transform="translate(316.438)" fill="#fff"/><circle data-name="Эллипс 452" cx="3.123" cy="3.123" r="3.123" transform="translate(361.639)" fill="#fff"/></g></g><g data-name="Сгруппировать 4235" fill="#fff"><path data-name="Контур 16757" d="M973.39 1118.153l-139.431 139.5-54.269-54.269 193.7-193.7 193.7 193.7-54.2 54.269z" opacity=".5"/><path data-name="Контур 16758" d="M973.39 1006.932l-139.431 139.5-54.269-54.269 193.7-193.7 193.7 193.7-54.2 54.269z" opacity=".44"/><path data-name="Контур 16759" d="M973.39 895.712l-139.431 139.5-54.269-54.269 193.7-193.7 193.7 193.7-54.2 54.269z" opacity=".38"/><path data-name="Контур 16760" d="M973.39 784.491l-139.431 139.5-54.269-54.269 193.7-193.7 193.7 193.7-54.2 54.269z" opacity=".31"/><path data-name="Контур 16761" d="M973.39 673.27l-139.431 139.5-54.269-54.269 193.7-193.62 193.7 193.62-54.2 54.269z" opacity=".25"/><path data-name="Контур 16762" d="M973.39 562.045L833.959 701.55l-54.269-54.269 193.7-193.621 193.693 193.621-54.193 54.269z" opacity=".19"/><path data-name="Контур 16763" d="M973.39 450.829l-139.431 139.5-54.269-54.192 193.7-193.7 193.7 193.7-54.2 54.192z" opacity=".12"/><path data-name="Контур 16764" d="M973.39 339.609l-139.431 139.5-54.269-54.192 193.7-193.7 193.7 193.7-54.2 54.192z" opacity=".06"/></g><path data-name="Контур 16783" d="M1777.948 746.135q-20.879 2.038-42 4.227c-161.448 16.486-328.423 33.516-469.792-40.37-84.393-44.084-149.733-116.731-212.929-186.993-52.266-58.094-106.314-118.18-171.231-162.6-129.868-88.826-296.448-109.143-427.099-116.937-33.123-1.963-66.941-3.382-99.641-4.71-114.376-4.74-232.646-9.6-344.425-40.128q-7.609-2.083-14.946-4.288h-10.297a652.866 652.866 0 0024.46 7.186c112.078 30.587 230.53 35.478 345.087 40.219 32.7 1.359 66.488 2.748 99.58 4.71 130.258 7.76 296.326 28.02 425.557 116.429 64.646 44.2 118.573 104.17 170.718 162.143 63.378 70.443 128.9 143.3 213.775 187.657 142.185 74.308 309.612 57.218 471.513 40.7q21.105-2.174 41.97-4.227c63.861-6.25 134.063-10.357 203.54-5.314v-3.019c-69.6-5.042-139.86-.936-203.841 5.344z" fill="#fff"/><circle data-name="Эллипс 454" cx="250" cy="250" r="250" transform="translate(1059.689 200)" fill="none" stroke="#0db1d5" stroke-width="15"/></g></svg>